<?xml version="1.0" encoding="UTF-8"?>
<svg width="16" height="16" version="1.1" viewBox="0 0 16 16" xml:space="preserve" xmlns="http://www.w3.org/2000/svg" xmlns:cc="http://creativecommons.org/ns#" xmlns:dc="http://purl.org/dc/elements/1.1/" xmlns:rdf="http://www.w3.org/1999/02/22-rdf-syntax-ns#"><metadata><rdf:RDF><cc:Work rdf:about=""><dc:format>image/svg+xml</dc:format><dc:type rdf:resource="http://purl.org/dc/dcmitype/StillImage"/></cc:Work></rdf:RDF></metadata><defs><clipPath id="clipPath18"><path d="M 0,93.507 H 93.507 V 0 H 0 Z"/></clipPath></defs><g transform="matrix(1.8026 0 0 -1.8026 -56.23 92.269)" fill="#fff"><g fill="#fff"><g clip-path="url(#clipPath18)" fill="#fff"><g transform="translate(69.017,49.387)" fill="#fff"><path d="m-30.68-7.026c-0.596 0-1.078 0.482-1.078 1.077s0.482 1.078 1.078 1.078c0.595 0 1.077-0.483 1.077-1.078s-0.482-1.077-1.077-1.077m-1.702 3.551-1.067 3.314-1.092-3.314-0.054-0.181h-1.899l2.018 5.403h2.196l1.977-5.4-2.023-5e-3zm-3.708-3.551c-0.595 0-1.078 0.482-1.078 1.077s0.483 1.078 1.078 1.078 1.078-0.483 1.078-1.078-0.483-1.077-1.078-1.077" fill="#fff"/></g></g></g></g></svg>
