<?xml version="1.0" encoding="UTF-8"?>
<svg width="16" height="16" version="1.1" viewBox="0 0 16 16" xml:space="preserve" xmlns="http://www.w3.org/2000/svg">
    <defs><clipPath id="clipPath18"><path d="M 0,93.507 H 93.507 V 0 H 0 Z"/></clipPath></defs>
    <g transform="matrix(1.8026 0 0 -1.8026 -56.23 92.269)" fill="#fff"><g fill="#fff"><g clip-path="url(#clipPath18)" fill="#fff"><g transform="translate(69.017,49.387)" fill="#fff"><path d="m-30.841-6.765c-0.56054 0-1.0139 0.45332-1.0139 1.0129s0.45332 1.0139 1.0139 1.0139c0.5596 0 1.0129-0.45426 1.0129-1.0139s-0.45332-1.0129-1.0129-1.0129m-1.6007 3.3397-1.0035 3.1168-1.027-3.1168-0.05079-0.17023h-1.786l1.8979 5.0815h2.0653l1.8594-5.0787-1.9026-0.0047zm-3.4874-3.3397c-0.5596 0-1.0139 0.45332-1.0139 1.0129s0.45426 1.0139 1.0139 1.0139c0.5596 0 1.0139-0.45426 1.0139-1.0139s-0.45426-1.0129-1.0139-1.0129" fill="none" stroke="#fff" stroke-width=".52175"/></g></g></g></g></svg>
